<svg xmlns="http://www.w3.org/2000/svg" xmlns:xlink="http://www.w3.org/1999/xlink" viewBox="0 0 1707.67 305.96"><defs><style>.cls-1{fill:url(#Dégradé_sans_nom_65);}.cls-2{fill:#fff;}.cls-3{fill:url(#Dégradé_sans_nom_65-2);}</style><linearGradient id="Dégradé_sans_nom_65" x1="62.05" y1="176.6" x2="135.62" y2="49.17" gradientUnits="userSpaceOnUse"><stop offset="0.59" stop-color="#fff"/><stop offset="0.7" stop-color="#fcfcfc"/><stop offset="0.77" stop-color="#f4f4f4"/><stop offset="0.82" stop-color="#e6e6e6"/><stop offset="0.88" stop-color="#d1d1d1"/><stop offset="0.92" stop-color="#b7b7b7"/><stop offset="0.96" stop-color="#979797"/><stop offset="1" stop-color="#757575"/></linearGradient><linearGradient id="Dégradé_sans_nom_65-2" x1="-11128.03" y1="-97.83" x2="-11054.45" y2="-225.26" gradientTransform="translate(-10886.61 31.89) rotate(180)" xlink:href="#Dégradé_sans_nom_65"/></defs><title>Fichier 8</title><g id="Calque_2" data-name="Calque 2"><g id="texte_logo" data-name="texte + logo"><path class="cls-1" d="M187.77,114.07,76.33,171.45A25.13,25.13,0,0,1,44.53,164l-.13-.19Q28.46,141.94,29,107.59,29,73.24,46.64,49.1A102.71,102.71,0,0,1,59.46,34.69h0c67.89,0,128.31,32.88,128.31,79.38"/><path class="cls-2" d="M266.66,29.87Q228.58,0,163.86,0q-38.34,0-69,12.45A117.36,117.36,0,0,0,59.46,34.6h0c61.18,0,116.24,26.73,126.56,66a0,0,0,0,1,0,0A52.37,52.37,0,0,1,187.77,114l92.59,0a23,23,0,0,0,22.37-28.71A100.29,100.29,0,0,0,266.66,29.87Z"/><path class="cls-3" d="M115.69,192.25l111.44-57.39a25.13,25.13,0,0,1,31.8,7.43l.13.18q15.94,21.92,15.43,56.26,0,34.35-17.67,58.49A103.27,103.27,0,0,1,244,271.63h0c-67.89,0-128.31-32.89-128.31-79.38"/><path class="cls-2" d="M36.8,276.09Q74.88,306,139.6,306q38.34,0,69-12.45A117.55,117.55,0,0,0,244,271.36h0c-61.18,0-116.24-26.73-126.56-66a.08.08,0,0,1,0,0A52.29,52.29,0,0,1,115.69,192L23.1,192A23,23,0,0,0,.73,220.66,100.37,100.37,0,0,0,36.8,276.09Z"/><path class="cls-2" d="M473.29,214.92c-4.73-7.62-10-15.34-15.67-22.94S446.07,177,440,169.81a210.06,210.06,0,0,0-15.09-16.12c10.29-10.22,19.93-20.28,28.68-29.93,9.45-10.41,19.28-21.51,29.23-33l5-5.79H428.59l-1,1.27c-2.57,3.13-5.64,6.8-9.4,11.23s-7.56,8.88-11.66,13.64-8.34,9.55-12.76,14.44L387,133V13.55l-49,7.93V241h49V179.91c2.68,2.55,5.38,5.39,8.07,8.48,4.67,5.36,9.2,11.05,13.45,16.93s8.33,11.83,12.13,17.73,7.24,11.36,10.23,16.25l1,1.68h56l-2.62-5.1C482.05,229.58,478,222.53,473.29,214.92Z"/><path class="cls-2" d="M596.39,87.6c-1.88,7.33-4,15.38-6.39,23.94s-4.85,17.29-7.4,26.07-5.18,17.36-7.81,25.6c-1.52,4.74-3,9.29-4.5,13.61q-2.44-6.54-5-13.71c-2.95-8.32-5.86-16.93-8.67-25.6-2.86-8.84-5.59-17.6-8.1-26s-4.8-16.61-6.66-23.86L541.2,85H489l1.3,4.47a799.91,799.91,0,0,0,27.38,79.7c9.42,23,19,44,28.37,62.57A44.26,44.26,0,0,1,537,246c-3.42,3.42-8.32,5.08-15,5.08a62.84,62.84,0,0,1-10.22-.8,68.57,68.57,0,0,1-11.07-3L497,246l-8.85,40.48,2.68,1.13a86.11,86.11,0,0,0,14.39,4.31,89.31,89.31,0,0,0,19.1,1.92,76.45,76.45,0,0,0,21.9-2.84,49.86,49.86,0,0,0,17.27-9.16,70.91,70.91,0,0,0,13.78-15.53,170.72,170.72,0,0,0,12.2-22.18c11-23.65,21.28-48.38,30.57-73.51s18.29-52.39,26.82-81.13L648.22,85H597.07Z"/><rect class="cls-2" x="734" y="36.98" width="51" height="204"/><path class="cls-2" d="M942.58,101.56c-5.29-6.5-12.51-11.58-21.47-15.11s-19.9-5.21-33-5.21A234.74,234.74,0,0,0,851.8,84a241.35,241.35,0,0,0-28.27,5.92l-2.53.73V241h49V125.29c1.8-.21,3.75-.4,5.82-.58,3.27-.27,6.4-.41,9.3-.41,8.56,0,14.15,2.25,17.06,6.88,3.2,5.09,4.82,14.2,4.82,27.09V241h50V153.16a118.51,118.51,0,0,0-3.23-28.67A58.55,58.55,0,0,0,942.58,101.56Z"/><path class="cls-2" d="M1038.17,70.73a19,19,0,0,1,3.56-7.45,16.43,16.43,0,0,1,6.77-4.76,30.71,30.71,0,0,1,11.5-1.87,69.19,69.19,0,0,1,10.6.81,36.7,36.7,0,0,1,9.13,2.58l3.91,1.72,8.87-40.19-2.68-1.14a97.74,97.74,0,0,0-13.6-4.42,84.78,84.78,0,0,0-20.46-2.09c-22.13,0-39.16,6.09-50.59,18.1S988,60.25,988,80.37V241h49V127h52V85h-52v-4A42.08,42.08,0,0,1,1038.17,70.73Z"/><rect class="cls-2" x="1107" y="84.98" width="49" height="156"/><path class="cls-2" d="M1151,23.9a30.41,30.41,0,0,0-40.13,0c-5.77,5.12-8.7,12.16-8.7,20.93s2.93,15.81,8.7,20.93a30.44,30.44,0,0,0,40.13,0c5.78-5.12,8.7-12.16,8.7-20.93S1156.8,29,1151,23.9Z"/><path class="cls-2" d="M1310.58,101.56c-5.29-6.5-12.51-11.58-21.47-15.11-8.81-3.45-19.9-5.21-33-5.21A234.74,234.74,0,0,0,1219.8,84a241.35,241.35,0,0,0-28.27,5.92l-2.53.73V241h49V125.29c1.8-.21,3.75-.4,5.82-.58,3.27-.27,6.4-.41,9.3-.41,8.56,0,14.15,2.25,17.06,6.88,3.2,5.09,4.82,14.2,4.82,27.09V241h50V153.16a118.51,118.51,0,0,0-3.23-28.67A58.55,58.55,0,0,0,1310.58,101.56Z"/><rect class="cls-2" x="1356" y="84.98" width="49" height="156"/><path class="cls-2" d="M1400.27,23.9a30.41,30.41,0,0,0-40.13,0c-5.77,5.12-8.7,12.16-8.7,20.93s2.93,15.81,8.7,20.93a30.45,30.45,0,0,0,40.14,0c5.77-5.12,8.7-12.17,8.7-20.93S1406.05,29,1400.27,23.9Z"/><path class="cls-2" d="M1531.7,197.15a68.34,68.34,0,0,1-12.46,3.36,75.85,75.85,0,0,1-13.34,1.23c-8,0-13.31-2.09-15.73-6.22-2.76-4.73-4.17-11.29-4.17-19.52V127h51V85h-51V40.16l-49,8V176.57a124.71,124.71,0,0,0,2.76,27.16,52.49,52.49,0,0,0,10.14,21.74,48.41,48.41,0,0,0,19.42,14.09c7.91,3.28,17.94,4.95,29.81,4.95a102,102,0,0,0,23.66-2.37,121.84,121.84,0,0,0,17.42-5.56l2.61-1.07-7.17-39.88Z"/><path class="cls-2" d="M1656.53,85l-.68,2.62c-1.89,7.34-4,15.4-6.4,23.94s-4.85,17.33-7.39,26.07-5.18,17.37-7.82,25.6c-1.51,4.73-3,9.28-4.49,13.61q-2.45-6.54-5-13.71c-3-8.35-5.87-17-8.67-25.6-2.85-8.81-5.58-17.57-8.1-26s-4.79-16.58-6.67-23.86l-.67-2.63h-52.23l1.3,4.47a800.8,800.8,0,0,0,27.38,79.7c9.42,23,19,44,28.37,62.57a44.26,44.26,0,0,1-9,14.25c-3.42,3.42-8.32,5.08-15,5.08a62.84,62.84,0,0,1-10.22-.8,68.57,68.57,0,0,1-11.07-3l-3.73-1.29-8.84,40.48,2.68,1.13a86.11,86.11,0,0,0,14.39,4.31,89.31,89.31,0,0,0,19.1,1.92,76.45,76.45,0,0,0,21.9-2.84,49.86,49.86,0,0,0,17.27-9.16,70.68,70.68,0,0,0,13.78-15.53,171.38,171.38,0,0,0,12.2-22.18c11-23.65,21.28-48.38,30.57-73.51s18.29-52.39,26.82-81.13l1.33-4.49Z"/></g></g></svg>